<?xml version="1.0" encoding="UTF-8" standalone="no"?>
<svg width="46px" height="46px" viewBox="0 0 46 46" version="1.1" xmlns="http://www.w3.org/2000/svg" xmlns:xlink="http://www.w3.org/1999/xlink" xmlns:sketch="http://www.bohemiancoding.com/sketch/ns">
    <!-- Generator: Sketch 3.3.2 (12043) - http://www.bohemiancoding.com/sketch -->
    <title>logomin-02</title>
    <desc>Created with Sketch.</desc>
    <defs></defs>
    <g id="Page-1" stroke="none" stroke-width="1" fill="none" fill-rule="evenodd" sketch:type="MSPage">
        <g id="logomin-02" sketch:type="MSLayerGroup" fill="#ffffff">
            <g id="Group" sketch:type="MSShapeGroup">
                <!-- <path d="M45.999,51.141 C45.999,53.264 44.306,54.984 42.217,54.984 L3.782,54.984 C1.693,54.984 0,53.263 0,51.141 L0,51.141 C0,49.018 1.693,47.298 3.782,47.298 L42.217,47.298 C44.306,47.298 45.999,49.018 45.999,51.141 L45.999,51.141 L45.999,51.141 Z" id="Shape"></path> -->
                <g id="Shape">
                    <g>
                        <path d="M44.031,34.661 C44.031,31.526 41.481,28.976 38.346,28.976 C38.172,28.976 38,28.987 37.829,29.003 C39.082,26.442 39.676,23.652 39.676,20.452 C39.676,9.522 30.925,0.629 20.168,0.629 C9.411,0.629 0.66,9.521 0.66,20.452 C0.66,31.382 9.411,40.275 20.168,40.275 C21.379,40.275 38.204,40.278 39.253,40.267 C39.267,40.266 39.303,40.26 39.303,40.26 C41.983,39.802 44.031,37.469 44.031,34.661 L44.031,34.661 Z M38.67,38.166 C38.642,38.168 21.469,38.162 20.169,38.162 C10.598,38.162 2.812,30.176 2.812,20.451 C2.812,10.726 10.598,2.814 20.169,2.814 C29.74,2.814 37.526,10.726 37.526,20.451 C37.526,24.227 36.273,27.82 34.276,30.692 C34.277,30.693 33.829,31.213 33.604,31.541 C33.469,31.708 33.384,31.917 33.384,32.149 C33.384,32.685 33.818,33.119 34.354,33.119 C34.67,33.119 34.948,32.966 35.125,32.732 C35.127,32.734 35.185,32.65 35.213,32.607 C35.884,31.586 37.036,30.909 38.346,30.909 C40.414,30.909 42.097,32.592 42.097,34.66 C42.097,36.634 40.602,38.04 38.67,38.166 L38.67,38.166 Z"></path>
                        <path d="M25.357,40.769 L20.168,40.769 C9.138,40.769 0.165,31.655 0.165,20.452 C0.165,9.249 9.138,0.135 20.168,0.135 C31.198,0.135 40.171,9.249 40.171,20.452 C40.171,23.437 39.66,26.075 38.612,28.487 C41.897,28.627 44.525,31.343 44.525,34.661 C44.525,36.126 44,37.548 43.047,38.663 C42.106,39.764 40.806,40.504 39.385,40.747 C39.317,40.759 39.284,40.76 39.272,40.76 L39.258,40.76 C38.581,40.768 31.325,40.769 25.357,40.769 L25.357,40.769 Z M20.168,1.124 C9.684,1.124 1.154,9.795 1.154,20.452 C1.154,31.11 9.684,39.78 20.168,39.78 L25.357,39.78 C31.248,39.78 38.395,39.779 39.22,39.772 C40.412,39.569 41.505,38.947 42.296,38.021 C43.096,37.085 43.537,35.892 43.537,34.662 C43.537,31.8 41.209,29.471 38.347,29.471 C38.21,29.471 38.06,29.479 37.875,29.496 L37,29.576 L37.386,28.787 C38.595,26.316 39.183,23.59 39.183,20.454 C39.182,9.794 30.653,1.124 20.168,1.124 L20.168,1.124 Z M37.746,38.661 C35.444,38.661 29.319,38.659 24.93,38.658 C22.479,38.657 20.569,38.657 20.168,38.657 C17.762,38.657 15.425,38.172 13.221,37.216 C11.097,36.294 9.188,34.977 7.547,33.299 C5.908,31.624 4.621,29.676 3.72,27.511 C2.788,25.269 2.316,22.894 2.316,20.451 C2.316,10.453 10.324,2.32 20.168,2.32 C30.011,2.32 38.02,10.454 38.02,20.451 C38.02,24.14 36.835,27.878 34.682,30.975 L34.681,30.974 C34.659,31.005 34.637,31.032 34.618,31.054 C34.33,31.396 34.126,31.654 34.011,31.821 L33.987,31.853 C33.937,31.914 33.878,32.015 33.878,32.149 C33.878,32.411 34.091,32.624 34.353,32.624 C34.5,32.624 34.638,32.554 34.73,32.433 L34.758,32.396 C34.771,32.378 34.787,32.354 34.799,32.335 C35.59,31.132 36.915,30.414 38.345,30.414 C40.686,30.414 42.591,32.319 42.591,34.66 C42.591,36.83 40.955,38.512 38.701,38.659 C38.68,38.661 38.68,38.661 37.746,38.661 L37.746,38.661 Z M20.168,3.309 C10.87,3.309 3.305,10.999 3.305,20.451 C3.305,22.763 3.752,25.01 4.633,27.131 C5.485,29.18 6.703,31.022 8.253,32.607 C9.804,34.192 11.608,35.438 13.614,36.308 C15.692,37.21 17.897,37.667 20.167,37.667 C20.568,37.667 22.478,37.668 24.929,37.668 C29.318,37.669 35.442,37.671 37.745,37.671 L38.651,37.671 C40.39,37.551 41.602,36.315 41.602,34.66 C41.602,32.864 40.141,31.403 38.346,31.403 C37.25,31.403 36.233,31.954 35.626,32.878 C35.593,32.928 35.558,32.981 35.518,33.029 L35.518,33.029 C35.237,33.4 34.813,33.612 34.353,33.612 C33.546,33.612 32.889,32.955 32.889,32.148 C32.889,31.82 32.999,31.508 33.206,31.245 C33.408,30.954 33.748,30.55 33.861,30.416 C33.869,30.407 33.875,30.399 33.88,30.393 C35.911,27.463 37.03,23.933 37.03,20.45 C37.031,10.999 29.466,3.309 20.168,3.309 L20.168,3.309 Z M33.876,30.402 C33.871,30.408 33.867,30.415 33.862,30.422 L33.87,30.411 C33.872,30.408 33.874,30.405 33.876,30.402 L33.876,30.402 Z"></path>
                    </g>
                    <g transform="translate(7.000000, 8.000000)">
                        <path d="M23.422,13.74 L24.986,12.176 L13.541,0.731 L13.521,0.751 L11.977,2.295 L8.34,5.932 L6.776,7.495 L6.745,7.527 L8.309,9.09 L8.34,9.059 L16.658,17.377 L12.99,21.045 L3.108,11.164 L1.544,12.727 L12.99,24.173 L13.009,24.153 L14.554,22.609 L18.222,18.941 L19.785,17.377 L18.222,15.813 L9.904,7.495 L13.541,3.858 L23.422,13.74 Z"></path>
                        <path d="M12.99,24.732 L0.985,12.727 L3.108,10.604 L12.99,20.486 L16.099,17.377 L8.34,9.619 L8.309,9.65 L6.186,7.527 L13.541,0.172 L25.546,12.177 L23.423,14.3 L13.541,4.418 L10.464,7.495 L20.346,17.377 L12.99,24.732 L12.99,24.732 Z M2.104,12.727 L12.99,23.613 L19.226,17.377 L9.344,7.495 L13.54,3.299 L23.422,13.181 L24.426,12.177 L13.541,1.291 L7.305,7.527 L8.309,8.531 L8.34,8.5 L17.218,17.377 L12.99,21.605 L3.108,11.723 L2.104,12.727 L2.104,12.727 Z"></path>
                    </g>
                </g>
            </g>
        </g>
    </g>
</svg>
